# xmcd
#
# Track frame offsets: 
#        150
#        13162
#        26302
#        38580
#        51107
#        62727
#        76020
#        89172
#        101701
#        114074
#        125567
#        137420
#        149658
#        162382
#        174726
#        185529
#        198494
#        208344
#
# Disc length: 2940 seconds
#
# Revision: 0
# Processed by: cddbd v1.5.2PL0 Copyright (c) Steve Scherf et al.
# Submitted via: ExactAudioCopy v0.99pb5
#
DISCID=fe0b7a12
DTITLE=Hank Williams - Hey Good Lookin' CD1
DYEAR=2005
DGENRE=Country
TTITLE0=Jambalaya
TTITLE1=Hey Good Lookin'
TTITLE2=Lovesick Blues
TTITLE3=I'm So Lonesome I Could Cry
TTITLE4=Kaw-liga
TTITLE5=You're Gonna Change (Or I'm Gonna Leave)
TTITLE6=Mind Your Own Business
TTITLE7=Honky Tonkin'
TTITLE8=Move It On Over
TTITLE9=My Bucket's Got A Hole In It
TTITLE10=Take These Chains From My Heart
TTITLE11=Howlin At The Moon
TTITLE12=Please Make Up Your Mind
TTITLE13=I Saw The Light
TTITLE14=I Can't Help It (If I'm Still in Love With You)
TTITLE15=Calling You
TTITLE16=Honky Tonk Blues
TTITLE17=Cold Cold Heart
EXTD=
EXTT0=
EXTT1=
EXTT2=
EXTT3=
EXTT4=
EXTT5=
EXTT6=
EXTT7=
EXTT8=
EXTT9=
EXTT10=
EXTT11=
EXTT12=
EXTT13=
EXTT14=
EXTT15=
EXTT16=
EXTT17=
PLAYORDER=
